<svg xmlns="http://www.w3.org/2000/svg" width="16" height="16" viewBox="0 0 16 16" fill="none">
  <path d="M15.623 13.5909L11.943 9.91095C12.7953 8.55213 13.1127 6.92524 12.8335 5.34573C12.5544 3.76622 11.6987 2.34663 10.4323 1.36223C9.16591 0.377822 7.5791 -0.101254 5.97954 0.0178897C4.37999 0.137034 2.88166 0.845908 1.77509 2.00706C0.668522 3.16822 0.0325552 4.69891 -0.00949258 6.30235C-0.0515404 7.90579 0.503326 9.46771 1.54752 10.6853C2.59171 11.9028 4.05082 12.6892 5.64194 12.8921C7.23305 13.0949 8.84279 12.6996 10.159 11.7829L13.791 15.4149C14.0383 15.6297 14.3576 15.7428 14.6849 15.7317C15.0122 15.7205 15.3231 15.5859 15.5552 15.3548C15.7872 15.1238 15.9232 14.8134 15.9358 14.4862C15.9484 14.159 15.8367 13.8391 15.623 13.5909ZM6.46303 10.8469C5.59686 10.8485 4.7497 10.593 4.02885 10.1128C3.30799 9.63256 2.74587 8.94921 2.41367 8.14927C2.08147 7.34934 1.99413 6.46881 2.16273 5.6192C2.33132 4.7696 2.74826 3.98913 3.36073 3.37666C3.97321 2.76418 4.75367 2.34724 5.60328 2.17865C6.45288 2.01006 7.33341 2.09739 8.13335 2.42959C8.93328 2.76179 9.61664 3.32391 10.0969 4.04477C10.5771 4.76562 10.8326 5.61278 10.831 6.47895C10.831 7.63742 10.3708 8.74843 9.55167 9.56759C8.73251 10.3868 7.62149 10.8469 6.46303 10.8469Z" fill="white"/>
</svg>