<svg width="208" height="28" viewBox="0 0 208 28" fill="none" xmlns="http://www.w3.org/2000/svg">
<path d="M19.6934 5.38418C19.6944 5.61862 19.8851 5.80836 20.1196 5.80737C20.3541 5.80638 20.5439 5.61564 20.5429 5.3812C20.5419 5.14676 20.3512 4.95702 20.1167 4.95801C19.8822 4.95901 19.6934 5.14974 19.6934 5.38418Z" fill="#4285F4"/>
<path d="M19.3054 5.92335C19.0829 5.99686 18.9616 6.23627 19.0352 6.45879C19.1087 6.68131 19.3482 6.80251 19.5707 6.72899C19.7933 6.65548 19.9145 6.41607 19.841 6.19355C19.7675 5.97103 19.528 5.84983 19.3054 5.92335Z" fill="#4285F4"/>
<path d="M36.7734 3.36182L36.8251 3.91713L36.8778 4.47343L37.3329 4.15058L37.7889 3.82772L37.2812 3.59427L36.7734 3.36182Z" fill="#4285F4"/>
<path d="M18.0752 5.15068C18.265 5.28777 18.5303 5.24505 18.6674 5.05432C18.8045 4.86458 18.7618 4.59934 18.571 4.46225C18.4349 4.36391 18.261 4.35993 18.1229 4.43344L17.9609 5.02849C17.9907 5.07518 18.0285 5.1169 18.0752 5.15068Z" fill="#4285F4"/>
<path d="M20.6033 11.081C20.7444 10.9807 20.9113 10.9131 21.0961 10.8883C21.2809 10.8634 21.4598 10.8853 21.6218 10.9449C21.6655 10.9608 21.7032 10.9131 21.6794 10.8734C21.5522 10.6648 21.3107 10.5406 21.0544 10.5744C20.798 10.6081 20.5973 10.7919 20.5297 11.0264C20.5158 11.0721 20.5655 11.1078 20.6033 11.081Z" fill="#4285F4"/>
<path d="M23.7063 5.16602H22.5586V5.54847H23.7063V5.16602Z" fill="#4285F4"/>
<path d="M21.5198 10.0099C21.6739 9.989 21.7981 9.88866 21.8547 9.75455C21.8726 9.71283 21.8229 9.67111 21.7851 9.69495C21.6987 9.74859 21.6003 9.78436 21.493 9.79926C21.3857 9.81317 21.2804 9.80422 21.183 9.77542C21.1393 9.7625 21.1025 9.81515 21.1313 9.85091C21.2208 9.96615 21.3668 10.0307 21.5198 10.0099Z" fill="#4285F4"/>
<path d="M19.3005 4.84662C19.5241 4.91814 19.7626 4.79596 19.8341 4.57244C19.9057 4.34893 19.7835 4.11051 19.5599 4.03899C19.3363 3.96746 19.0978 4.08965 19.0263 4.31316C18.9548 4.53569 19.077 4.77509 19.3005 4.84662Z" fill="#4285F4"/>
<path d="M8.42923 18.2629L8.28516 18.5474L8.43675 18.6241L8.58083 18.3396L8.42923 18.2629Z" fill="#4285F4"/>
<path d="M10.7339 19.4298L10.5898 19.7144L10.7414 19.7911L10.8855 19.5066L10.7339 19.4298Z" fill="#4285F4"/>
<path d="M10.4468 19.9987L10.3027 20.2832L10.4543 20.3599L10.5984 20.0754L10.4468 19.9987Z" fill="#4285F4"/>
<path d="M11.0279 18.8493L10.8789 19.1436L11.0305 19.2203L11.1795 18.926L11.0279 18.8493Z" fill="#4285F4"/>
<path d="M9.39464 17.3087L8.95703 18.1729L10.645 19.0272L11.0826 18.1631L9.39464 17.3087Z" fill="#4285F4"/>
<path d="M11.3159 18.2804L11.1719 18.5649L11.3235 18.6417L11.4675 18.3572L11.3159 18.2804Z" fill="#4285F4"/>
<path d="M9.01126 17.1144L8.86719 17.3989L9.01878 17.4757L9.16286 17.1912L9.01126 17.1144Z" fill="#4285F4"/>
<path d="M9.28665 22.2868L9.14258 22.5713L9.29418 22.648L9.43825 22.3635L9.28665 22.2868Z" fill="#4285F4"/>
<path d="M8.81411 18.4579L7.80469 20.4512L9.49264 21.3055L10.5021 19.3122L8.81411 18.4579Z" fill="#4285F4"/>
<path d="M10.1577 20.5675L10.0137 20.8521L10.1653 20.9288L10.3093 20.6443L10.1577 20.5675Z" fill="#4285F4"/>
<path d="M9.58065 21.7082L9.43164 22.0024L9.58324 22.0792L9.73225 21.7849L9.58065 21.7082Z" fill="#4285F4"/>
<path d="M9.86868 21.1388L9.72461 21.4233L9.87621 21.5001L10.0203 21.2156L9.86868 21.1388Z" fill="#4285F4"/>
<path d="M18.58 6.31311C18.7688 6.17503 18.8105 5.9088 18.6714 5.72005C18.5333 5.5313 18.267 5.48958 18.0782 5.62866C17.8894 5.76674 17.8477 6.03297 17.9858 6.22172C18.1249 6.41046 18.3902 6.45119 18.58 6.31311Z" fill="#4285F4"/>
<path d="M18.6646 24.8086H18.2344V27.9964H18.6646V24.8086Z" fill="#4285F4"/>
<path d="M19.9844 24.6651C19.9963 23.6807 19.7638 22.9972 19.5273 22.5571V24.6472V27.401L20.2795 25.0764C20.1066 25.0188 19.9824 24.8569 19.9844 24.6651Z" fill="#4285F4"/>
<path d="M9.34798 21.5907L7.66077 20.7363L7.51172 21.0304L7.82472 21.9056L8.91077 22.4549L9.34798 21.5907Z" fill="#4285F4"/>
<path d="M6.4938 15.5151C6.89056 15.5151 7.2122 15.1935 7.2122 14.7968C7.2122 14.4002 6.89056 14.0786 6.4938 14.0786C6.09703 14.0786 5.77539 14.4002 5.77539 14.7968C5.77539 15.1935 6.09703 15.5151 6.4938 15.5151Z" fill="#4285F4"/>
<path d="M19.0846 5.52065C19.1591 5.54449 19.2386 5.50376 19.2624 5.42926C19.2863 5.35475 19.2455 5.27528 19.171 5.25144C19.0965 5.2276 19.017 5.26833 18.9931 5.34283C18.9693 5.41734 19.01 5.49681 19.0846 5.52065Z" fill="#4285F4"/>
<path d="M7.35156 20.5801L7.35653 20.593L7.3923 20.6923L7.42907 20.6188L7.35156 20.5801Z" fill="#4285F4"/>
<path d="M8.14017 18.8327L7.99609 19.1172L8.14769 19.1939L8.29177 18.9094L8.14017 18.8327Z" fill="#4285F4"/>
<path d="M8.72323 17.6838L8.57422 17.978L8.72582 18.0548L8.87483 17.7605L8.72323 17.6838Z" fill="#4285F4"/>
<path d="M18.9107 9.2025C18.9733 9.12302 19.0538 9.05448 19.1502 9.00481C19.2466 8.95415 19.3479 8.92732 19.4493 8.92136C19.495 8.91838 19.5109 8.85679 19.4721 8.83295C19.3489 8.75646 19.1889 8.74553 19.0518 8.81706C18.9147 8.88858 18.8322 9.02567 18.8243 9.17071C18.8223 9.2164 18.8819 9.23826 18.9107 9.2025Z" fill="#4285F4"/>
<path d="M7.85306 19.4035L7.70898 19.688L7.86058 19.7647L8.00466 19.4802L7.85306 19.4035Z" fill="#4285F4"/>
<path d="M7.56595 19.9723L7.42188 20.2568L7.57347 20.3336L7.71755 20.0491L7.56595 19.9723Z" fill="#4285F4"/>
<path d="M27.0803 14.4502C27.1538 14.4691 27.2283 14.4244 27.2472 14.3509C27.2661 14.2774 27.2213 14.2029 27.1478 14.184C27.0743 14.1651 26.9998 14.2098 26.9809 14.2834C26.962 14.3569 27.0067 14.4314 27.0803 14.4502Z" fill="#4285F4"/>
<path d="M27.2131 13.9185C27.2866 13.9374 27.3611 13.8927 27.38 13.8192C27.3989 13.7457 27.3542 13.6711 27.2806 13.6523C27.2071 13.6334 27.1326 13.6781 27.1137 13.7516C27.0948 13.8251 27.1395 13.8996 27.2131 13.9185Z" fill="#4285F4"/>
<path d="M22.6372 13.6987H22.032C21.9754 13.6987 21.9297 13.7444 21.9297 13.8011C21.9297 13.8577 21.9754 13.9034 22.032 13.9034H22.6372C22.6938 13.9034 22.7395 13.8577 22.7395 13.8011C22.7395 13.7444 22.6938 13.6987 22.6372 13.6987Z" fill="#4285F4"/>
<path d="M26.6112 14.4541L26.808 13.6753C26.8269 13.6018 26.7821 13.5273 26.7086 13.5084L25.6414 13.2392C25.5679 13.2203 25.4934 13.265 25.4745 13.3385L25.2778 14.1174C25.2589 14.1909 25.3036 14.2654 25.3771 14.2842L26.4443 14.5535C26.5178 14.5723 26.5924 14.5276 26.6112 14.4541ZM25.5778 14.0518L25.707 13.5382L26.5079 13.7399L26.3787 14.2535L25.5778 14.0518Z" fill="#4285F4"/>
<path d="M18.4957 10.1641C18.6865 10.317 18.9557 10.3508 19.1853 10.2306C19.4148 10.1104 19.541 9.87002 19.5241 9.62664C19.5211 9.57995 19.4625 9.56306 19.4357 9.60081C19.3373 9.74286 19.2032 9.86406 19.0382 9.95048C18.8733 10.0369 18.6974 10.0776 18.5245 10.0776C18.4788 10.0766 18.4589 10.1343 18.4957 10.1641Z" fill="#4285F4"/>
<path d="M27.3 20.9258H26.2676V21.2695H27.3V20.9258Z" fill="#4285F4"/>
<path d="M11.3536 13.1167C11.3516 13.1167 11.3486 13.1167 11.3467 13.1167C11.3447 13.1167 11.3417 13.1167 11.3397 13.1167C11.2533 13.1207 11.1837 13.1872 11.1787 13.2707C11.1787 13.2737 11.1777 13.2766 11.1777 13.2806C11.1777 13.2836 11.1777 13.2866 11.1787 13.2896C11.1837 13.376 11.2572 13.4435 11.3467 13.4435C11.4361 13.4435 11.5086 13.377 11.5146 13.2915C11.5146 13.2876 11.5156 13.2836 11.5156 13.2796C11.5156 13.2756 11.5156 13.2717 11.5146 13.2677C11.5086 13.1862 11.4391 13.1207 11.3536 13.1167Z" fill="#4285F4"/>
<path d="M27.3 20.2373H26.2676V20.581H27.3V20.2373Z" fill="#4285F4"/>
<path d="M22.6372 14.1084H22.032C21.9754 14.1084 21.9297 14.1541 21.9297 14.2107C21.9297 14.2673 21.9754 14.313 22.032 14.313H22.6372C22.6938 14.313 22.7395 14.2673 22.7395 14.2107C22.7395 14.1541 22.6938 14.1084 22.6372 14.1084Z" fill="#4285F4"/>
<path d="M10.011 24.5947C9.88484 24.5967 9.88385 24.7855 10.011 24.7874C10.1382 24.7865 10.1382 24.5977 10.011 24.5947Z" fill="#4285F4"/>
<path d="M14.5957 15.833C13.9071 15.833 13.3477 16.4112 13.3477 17.1224C13.3477 17.8337 13.9081 18.4119 14.5957 18.4119C15.2843 18.4119 15.8437 17.8337 15.8437 17.1224C15.8437 16.4112 15.2843 15.833 14.5957 15.833ZM14.5957 18.1178C14.0641 18.1178 13.6318 17.6718 13.6318 17.1224C13.6318 16.5731 14.0641 16.1271 14.5957 16.1271C15.1273 16.1271 15.5595 16.5731 15.5595 17.1224C15.5595 17.6718 15.1273 18.1178 14.5957 18.1178Z" fill="#4285F4"/>
<path d="M13.924 22.0894H12.839C12.7853 22.0894 12.7426 22.1331 12.7426 22.1857C12.7426 22.2384 12.7853 22.2821 12.839 22.2821H13.156C13.2931 22.2821 13.4093 22.3725 13.4501 22.4966H12.84C12.7128 22.4986 12.7128 22.6884 12.84 22.6894H13.4501C13.4093 22.8126 13.2941 22.9039 13.156 22.9039H12.839C12.7525 22.901 12.7068 23.0182 12.7754 23.0728L13.4998 23.7066C13.5951 23.7901 13.7213 23.644 13.6259 23.5616L13.0953 23.0967C13.3577 23.1195 13.6021 22.9447 13.6488 22.6894H13.924C14.0512 22.6874 14.0512 22.4976 13.924 22.4966H13.6488C13.6329 22.4162 13.5971 22.3437 13.5484 22.2821H13.924C14.0522 22.2811 14.0512 22.0923 13.924 22.0894Z" fill="#4285F4"/>
<path d="M14.9955 16.699L14.4788 17.2324L14.1946 16.9394C14.139 16.8818 14.0485 16.8818 13.9929 16.9394C13.9373 16.997 13.9373 17.0904 13.9929 17.148L14.3774 17.5454C14.4043 17.5732 14.44 17.5881 14.4778 17.5881C14.5156 17.5881 14.5523 17.5722 14.5782 17.5454L15.1952 16.9076C15.2509 16.85 15.2509 16.7566 15.1952 16.699C15.1416 16.6414 15.0511 16.6414 14.9955 16.699Z" fill="#4285F4"/>
<path d="M17.9283 9.71568C17.9909 9.63621 18.0714 9.56766 18.1678 9.51799C18.2641 9.46733 18.3655 9.44051 18.4668 9.43455C18.5126 9.43157 18.5285 9.36998 18.4897 9.34613C18.3665 9.26964 18.2065 9.25872 18.0694 9.33024C17.9323 9.40176 17.8498 9.53885 17.8418 9.68389C17.8399 9.72959 17.9005 9.75144 17.9283 9.71568Z" fill="#4285F4"/>
<path d="M45.2206 1.75931C45.1301 1.75037 45.0745 1.65401 45.0596 1.56361C45.0447 1.47421 45.0536 1.37983 45.0199 1.29539C44.9602 1.14539 44.7903 1.07883 44.6602 0.983467C44.366 0.766906 44.2716 0.329809 44.4257 0.0039736H40.7969C40.8028 0.014901 40.8098 0.024835 40.8137 0.0357624C40.8853 0.203647 40.8475 0.404314 40.7502 0.559285C40.6528 0.714255 40.5017 0.827503 40.3418 0.916909C40.1788 1.0083 40.0029 1.07784 39.8181 1.10268L39.7416 0.987441C39.6999 0.676506 39.8668 0.378486 40.0357 0.113248C40.0596 0.0764919 40.0844 0.0387426 40.1112 0.00298018H36.2519C36.2638 0.0317888 36.2728 0.0615909 36.2787 0.0913929C36.3125 0.288086 36.2201 0.494714 36.0641 0.617895C35.922 0.73015 35.7402 0.774853 35.5643 0.817569C35.3437 0.870219 35.1241 0.923863 34.9035 0.976513L34.8847 1.03612C34.8847 0.816576 34.8856 0.589087 34.979 0.3914C35.0506 0.238416 35.1718 0.116228 35.297 0.0019868H34.67L32.3141 8.63365C32.4611 8.5959 32.6191 8.66146 32.6897 8.79955L32.8238 9.06478C32.9957 9.37771 33.2282 9.77904 33.6456 9.77109C34.3988 9.78599 34.4107 9.77606 34.8757 9.13333L35.2225 9.71844L34.7465 10.3045C34.6233 10.4426 34.5558 10.6195 34.5548 10.8032V11.1589V11.1599C34.5548 11.1668 34.5478 11.1728 34.5408 11.1728L33.1726 11.1718C33.1646 11.1718 33.1577 11.1658 33.1577 11.1579V10.8032C33.1577 10.6205 33.0901 10.4436 32.9669 10.3045L32.5396 9.81878L32.164 9.18697L30.6686 14.6676L29.0947 8.8969C28.9734 8.93962 28.8383 8.87703 28.7946 8.75385L28.566 8.11211L28.2521 8.06542L28.6127 8.92074C28.6694 9.0469 28.6962 9.19492 28.5919 9.29724L28.111 9.76613L28.885 10.6989C28.9854 10.8191 28.9685 10.9979 28.8482 11.0983C28.727 11.1986 28.5482 11.1807 28.4488 11.0615L27.6042 10.0433L27.1262 11.0069C27.0557 11.1479 26.8858 11.2036 26.7457 11.135C26.6056 11.0655 26.5479 10.8956 26.6175 10.7556L27.2316 9.51877C27.2524 9.47705 27.2832 9.44128 27.321 9.41446L27.7125 9.13432L27.475 8.57106L27.3429 8.72802C27.2902 8.78961 27.2107 8.82041 27.1332 8.81047L26.3552 8.7161C26.226 8.70021 26.1336 8.58298 26.1495 8.45285C26.1654 8.32371 26.2797 8.23132 26.4128 8.24722L27.0646 8.3257L27.2723 8.07933C27.2117 7.89555 27.3001 7.69389 27.482 7.6174L27.63 7.55482C27.6966 7.527 27.791 7.52005 27.8337 7.52601L28.7598 7.66508L28.103 5.25708C28.0295 5.37033 27.8536 5.37728 27.7115 5.36437C27.4373 5.34052 27.1163 5.3445 26.9454 5.55907C26.7934 5.7498 26.8043 6.05975 26.5986 6.19088C26.4655 6.27531 26.2747 6.24055 26.1664 6.12531C26.0581 6.01008 26.0332 5.83027 26.0879 5.68225C26.1425 5.53424 26.2707 5.419 26.4168 5.36039C26.2707 5.35841 26.1246 5.33357 25.9865 5.28489C25.9537 5.27297 25.92 5.25907 25.8961 5.23324C25.8623 5.19449 25.8584 5.13886 25.8564 5.08721C25.8514 4.95806 25.8643 4.79813 25.9826 4.74548C26.0253 4.7266 26.073 4.7266 26.1197 4.7276C26.4774 4.73157 26.8341 4.73554 27.1918 4.73852C27.4432 4.7415 27.7214 4.73356 27.9212 4.59249L27.6549 3.61697L27.4641 2.91663C27.4939 3.0865 27.5098 3.25736 27.4989 3.42922C27.4889 3.58717 27.4502 3.75406 27.3379 3.86632C27.2286 3.97559 27.0666 4.01433 26.9126 4.02824C26.7258 4.04513 26.5251 4.03023 26.3701 3.92294C26.1545 3.77492 26.0809 3.48783 26.0849 3.22557C26.0869 3.11034 26.1008 2.9951 26.1406 2.88782C26.22 2.67523 26.3989 2.50933 26.6036 2.40999C26.8083 2.31065 27.0368 2.2729 27.2644 2.25899L27.2882 2.27489L26.6692 0.00496698H26.3999V0.104307C26.3999 0.49372 26.3343 0.875186 26.2051 1.23877C26.0799 1.59044 25.8981 1.91627 25.6646 2.20932C25.3188 2.64245 24.8707 2.98418 24.3669 3.20471C24.6004 2.97325 24.7942 2.70503 24.9392 2.41098C25.5603 1.89541 25.9587 1.13744 26.0114 0.296034H25.2393V0.00298018H24.8568V1.12254C24.8568 2.23615 24.1304 3.18286 23.1348 3.53055C22.1391 3.18286 21.4128 2.23615 21.4128 1.12254V0.00298018H21.0302V0.293053H20.2582C20.3108 1.13446 20.7103 1.89243 21.3303 2.408C21.4754 2.70205 21.6681 2.97027 21.9026 3.20173C21.3989 2.98219 20.9507 2.64046 20.6049 2.20634C20.3714 1.91329 20.1896 1.58745 20.0644 1.23579C19.9352 0.872206 19.8696 0.49074 19.8696 0.101327V0.0019868H19.3361L18.712 2.28979C18.9893 2.26595 19.2725 2.25601 19.5288 2.35734C19.6749 2.41496 19.8041 2.50536 19.9332 2.59476C20.0078 2.64642 20.0863 2.70503 20.1141 2.79046C20.1459 2.8898 20.0972 3.00206 20.0187 3.0706C19.9402 3.13915 19.8368 3.17292 19.7355 3.19776C19.3818 3.28418 19.0062 3.28319 18.6524 3.19577C18.5948 3.18186 18.5362 3.16299 18.4805 3.14213L18.2669 3.92592C18.6703 3.6875 19.1691 3.61399 19.651 3.76896C20.5443 4.05606 21.0352 5.01171 20.748 5.90378C20.5741 6.44618 20.1389 6.8644 19.5914 7.01838L20.3158 7.25083L20.2293 7.52005L18.6127 7.0005C18.1834 6.86241 17.8476 6.56837 17.6459 6.2028L15.3376 14.6656L15.1429 13.9533C15.118 13.9851 15.0922 14.0149 15.0644 14.0427C14.9402 14.1669 14.7792 14.2613 14.6043 14.2811C14.4294 14.3 14.2406 14.2344 14.1363 14.0924C14.0419 13.9642 14.026 13.7954 14.0429 13.6374C14.0548 13.5281 14.0826 13.4159 14.1562 13.3344C14.2068 13.2778 14.2744 13.241 14.341 13.2043C14.5119 13.1109 14.6838 13.0175 14.8547 12.9241L14.8636 12.9291L14.1582 10.3413C14.0359 10.39 13.8978 10.4069 13.7647 10.4069C13.4984 10.4079 13.2341 10.3572 12.9757 10.2926C12.8207 10.2539 12.6508 10.1992 12.5713 10.0602C12.4739 9.88931 12.5643 9.66182 12.7193 9.54162C12.8744 9.42142 13.0751 9.38267 13.2688 9.34691C13.4646 9.31015 13.6613 9.27439 13.8571 9.23764L13.8561 9.23565L13.3752 9.14724C13.5242 9.10154 13.6802 9.10949 13.8322 9.14823L12.8555 5.56901C12.7362 5.67033 12.5822 5.72398 12.4282 5.75477C12.2533 5.79053 12.0705 5.80246 11.8966 5.76173C11.7227 5.721 11.5578 5.62364 11.4594 5.47463C11.4157 5.40808 11.3849 5.33059 11.3839 5.25012C11.3829 5.15972 11.4187 5.07231 11.4594 4.99085C11.6671 4.57859 12.0208 4.24282 12.4431 4.05506L11.8579 1.90932C11.8579 1.957 11.8529 2.00468 11.842 2.05137C11.8062 2.21131 11.7207 2.35436 11.6313 2.49145C11.5369 2.6345 11.4057 2.78947 11.2338 2.78053C11.1136 2.77457 11.0133 2.68814 10.896 2.66331C10.6367 2.60867 10.425 2.85404 10.2134 3.01299C9.95105 3.20968 9.60526 3.29312 9.28133 3.23551C9.24655 3.22955 9.21177 3.2216 9.18296 3.20173C9.11936 3.15902 9.10048 3.0716 9.10943 2.9961C9.13526 2.78252 9.32406 2.63152 9.49894 2.50536C9.64202 2.40105 9.7861 2.29674 9.92919 2.19244C10.1925 2.00071 10.4578 1.80898 10.7519 1.66991C11.046 1.53182 11.3749 1.44838 11.6979 1.4901L11.7545 1.58547C11.7645 1.59739 11.7724 1.60931 11.7804 1.62222L11.3382 0H0.189453C0.42296 0.0288086 0.65448 0.0715249 0.882026 0.128149C0.960524 0.148017 1.04101 0.170865 1.10162 0.224509C1.17813 0.29206 1.20695 0.39736 1.23278 0.495707C1.26955 0.63677 1.30532 0.7828 1.2775 0.92585C1.25266 1.04903 1.1831 1.15831 1.11355 1.26361C1.04697 1.36493 0.95953 1.47917 0.838305 1.47818C0.764775 1.47719 0.700188 1.43447 0.642556 1.38877C0.566046 1.32917 0.494503 1.26162 0.426935 1.19109L1.00921 2.82126L1.26458 3.5375C1.30333 3.08948 1.4027 2.64741 1.5587 2.22522L1.59745 2.16959C1.65806 2.14277 1.73159 2.17952 1.76637 2.23615C1.80115 2.29277 1.80512 2.36131 1.80413 2.42787C1.80016 2.60072 1.76438 2.7706 1.75445 2.94345C1.74451 3.1163 1.76438 3.29809 1.85977 3.44114C1.9343 3.5524 2.04757 3.63088 2.13203 3.73519C2.21649 3.8385 2.27015 3.99049 2.2006 4.10473C2.14694 4.19414 2.03267 4.2309 1.92834 4.22295C1.825 4.215 1.72861 4.16831 1.63422 4.12361C1.56466 4.08983 1.49312 4.05308 1.43052 4.00738L2.12011 5.93855L2.74909 7.69787C3.2171 7.68892 3.68809 7.73164 4.07462 7.98198C4.14815 8.02966 4.2177 8.08529 4.2644 8.1588C4.36973 8.32569 4.33495 8.54325 4.27831 8.732C4.2644 8.7767 4.2495 8.82339 4.2177 8.85816C4.17696 8.90187 4.11536 8.91876 4.05772 8.93266C3.94047 8.96048 3.82124 8.98233 3.702 8.99922C3.5927 9.01412 3.47545 9.02406 3.37608 8.97538C3.26777 8.92372 3.20021 8.81643 3.14158 8.71213C3.10978 8.6565 3.08097 8.59987 3.05116 8.54325L3.80434 10.6503L4.41345 12.3549L4.45518 12.3668C4.50188 12.1602 4.60423 11.9615 4.76918 11.8294C4.93412 11.6973 5.16564 11.6397 5.36536 11.7112C5.41604 11.7291 5.46473 11.7559 5.51739 11.7648C5.65153 11.7887 5.78568 11.6983 5.85324 11.5811C5.92081 11.4629 5.93671 11.3228 5.94565 11.1877C5.94864 11.14 5.9536 11.0873 5.99037 11.0566C6.0321 11.0218 6.09371 11.0317 6.14637 11.0466C6.33616 11.1003 6.51899 11.1917 6.65313 11.3357C6.78727 11.4797 6.86677 11.6824 6.83497 11.8761C6.79721 12.1066 6.60742 12.2914 6.38981 12.3768C6.17221 12.4622 5.93075 12.4622 5.69824 12.4364C5.48957 12.4135 5.24414 12.3827 5.10304 12.5377C4.98877 12.6639 5.00069 12.8546 4.97983 13.0235C4.96294 13.1586 4.88841 13.3096 4.77315 13.3563L5.14477 14.3954L5.23122 14.3844C5.25308 14.3159 5.2809 14.2503 5.3127 14.1868L5.14577 13.9722C5.0782 13.8848 5.08615 13.7626 5.16365 13.6871L5.3902 13.4606C5.46473 13.3831 5.58794 13.3761 5.67439 13.4427L5.88902 13.6096C5.95162 13.5778 6.01819 13.55 6.08675 13.5281L6.12153 13.2579C6.13445 13.1506 6.22586 13.0692 6.33516 13.0692H6.65711C6.76541 13.0692 6.85782 13.1506 6.87074 13.2589L6.90552 13.5281C6.97408 13.55 7.04065 13.5778 7.10325 13.6096L7.31788 13.4427C7.40532 13.3752 7.52754 13.3831 7.60306 13.4606L7.82961 13.6871C7.90711 13.7616 7.91506 13.8848 7.8475 13.9712L7.68056 14.1858C7.71236 14.2484 7.74018 14.3149 7.76204 14.3835L8.03231 14.4182C8.13963 14.4311 8.22111 14.5225 8.22111 14.6318V14.9537C8.22111 15.0619 8.13963 15.1543 8.03132 15.1672L7.76204 15.202C7.74018 15.2706 7.71236 15.3371 7.68056 15.3997L7.8475 15.6143C7.91506 15.7017 7.90711 15.8239 7.82961 15.8994L7.60306 16.1259C7.52853 16.2034 7.40532 16.2113 7.31887 16.1438L7.10425 15.9769C7.04165 16.0087 6.97507 16.0365 6.90651 16.0583L6.87173 16.3285C6.85882 16.4358 6.7674 16.5173 6.6581 16.5173H6.33616C6.22785 16.5173 6.13544 16.4358 6.12252 16.3275L6.08775 16.0583C6.01918 16.0365 5.95261 16.0087 5.89001 15.9769L5.74792 16.0871L6.18612 17.315C6.37392 17.3696 6.56867 17.3964 6.76343 17.3925L6.77634 17.3478C6.8151 17.1084 6.91247 16.8789 7.05655 16.6842C7.07444 16.6593 7.10127 16.6325 7.13108 16.6405C7.14896 16.6454 7.15989 16.6613 7.17082 16.6762C7.25926 16.8064 7.32782 16.9514 7.37253 17.1024C7.37849 17.1242 7.38545 17.1471 7.40135 17.163C7.44109 17.2037 7.50965 17.1809 7.56132 17.158C7.82663 17.0408 8.12174 16.9951 8.4099 17.0259C8.3473 17.2286 8.10883 17.307 7.93692 17.4312C7.69745 17.6051 7.57225 17.8912 7.46196 18.1663C7.38446 18.36 7.30894 18.5547 7.2364 18.7504C7.14697 18.4991 7.05854 18.2478 6.96911 17.9965C6.83994 18.1375 6.71076 18.2796 6.58159 18.4206L7.19268 20.1323L8.9256 16.711L11.8449 18.1912L9.38367 23.0519L7.98164 22.3426L9.79405 27.4149L9.82386 27.3553C10.114 27.2828 10.4071 27.2232 10.7022 27.1755C10.733 27.1705 10.7708 27.1675 10.7917 27.1904C10.8066 27.2063 10.8086 27.2291 10.8106 27.251C10.8284 27.4973 10.8016 27.7477 10.7301 27.9841C10.7291 27.9881 10.7271 27.9921 10.7261 27.997H13.2241C13.3503 27.9563 13.4338 27.8162 13.4576 27.6811C13.4845 27.5291 13.4596 27.3712 13.4795 27.2182C13.4994 27.0642 13.5828 26.9003 13.7329 26.8626C13.9505 26.8079 14.1244 27.0334 14.3211 27.1397C14.3768 27.1695 14.4493 27.1884 14.498 27.1487C14.5318 27.1208 14.5417 27.0742 14.5487 27.0314C14.5725 26.8814 14.5844 26.7294 14.5854 26.5775C14.5854 26.5268 14.5854 26.4731 14.6132 26.4304C14.651 26.3718 14.7275 26.3529 14.7961 26.341C14.9233 26.3172 15.0554 26.2953 15.1826 26.3202C15.3098 26.344 15.435 26.4245 15.4767 26.5476C15.5185 26.6708 15.4449 26.8298 15.3167 26.8496C15.275 26.8556 15.2293 26.8486 15.1925 26.8675C15.1051 26.9122 15.1339 27.0404 15.1329 27.1377C15.1309 27.3175 14.9809 27.4685 14.812 27.5291C14.6431 27.5897 14.4572 27.5798 14.2784 27.5699C14.2297 27.5669 14.177 27.5659 14.1383 27.5967C14.0906 27.6354 14.0876 27.705 14.0787 27.7656C14.0657 27.85 14.031 27.9305 13.9793 27.999H17.3786V24.5152V22.5601C17.1411 23.0002 16.9086 23.6837 16.9215 24.6681C16.9235 24.8609 16.7993 25.0228 16.6254 25.0804V25.5115C16.6254 25.6009 16.6979 25.6725 16.7864 25.6725C16.8758 25.6725 16.9473 25.745 16.9473 25.8334V27.8242C16.9473 27.8242 16.9453 27.8222 16.9424 27.8192C16.7039 27.5907 16.3303 27.5907 16.0918 27.8192C16.0888 27.8222 16.0868 27.8242 16.0868 27.8242V25.8304C16.0868 25.741 16.1594 25.6695 16.2478 25.6695C16.3372 25.6695 16.4088 25.597 16.4088 25.5086V25.0933C16.212 25.0556 16.062 24.8847 16.059 24.6761C16.0302 22.285 17.2742 21.2826 17.3279 21.2419C17.4412 21.1535 17.5852 21.1306 17.7144 21.1684C17.8128 21.1416 18.0632 21.1505 18.1745 21.1505C18.3941 21.1505 18.3354 21.2886 18.2728 22.7558C18.2719 22.7886 18.2798 22.8224 18.2977 22.8502C18.3464 22.9277 18.4438 23.0866 18.4467 23.0866C18.4487 23.0866 18.5541 22.9307 18.6087 22.8522C18.6296 22.8234 18.6395 22.7876 18.6375 22.7519L18.5739 21.3174C18.5699 21.226 18.6435 21.1485 18.7349 21.1485C18.7816 21.1485 19.2228 21.1465 19.2695 21.1525C19.7007 21.1038 20.4986 22.0932 20.7619 23.5953L21.54 21.1922C21.4028 21.0631 21.2707 20.929 21.1594 20.777C20.9815 20.5346 20.8543 20.2425 20.8593 19.9415C20.8603 19.9068 20.8623 19.871 20.8812 19.8422C20.8961 19.8183 20.9209 19.8025 20.9448 19.7876C21.2637 19.5928 21.6751 19.567 22.0199 19.7051L23.0036 16.6653L26.1326 26.3361C26.1505 26.2049 26.1525 26.0708 26.1376 25.9397C26.1048 25.6675 26.0014 25.4062 25.9895 25.133C25.9875 25.0774 25.9895 25.0178 26.0243 24.9741C26.064 24.9244 26.1326 24.9115 26.1952 24.9105C26.3929 24.9075 26.5897 24.996 26.7179 25.146C26.7507 25.1847 26.7894 25.2314 26.8391 25.2254C26.8659 25.2225 26.8878 25.2036 26.9067 25.1847C27.0418 25.0426 27.0458 24.8251 27.0627 24.6304C27.0795 24.4347 27.1421 24.2102 27.325 24.1377C27.478 24.0771 27.6569 24.1555 27.7721 24.2738C27.8874 24.392 27.9589 24.545 28.0523 24.681C28.1626 24.841 28.3087 24.992 28.3286 25.1847C28.3554 25.434 28.1139 25.6754 27.8645 25.6486C27.7135 25.6327 27.5217 25.5523 27.4383 25.6794C27.4074 25.7251 27.4074 25.7837 27.4065 25.8394C27.4035 25.9933 27.3866 26.1473 27.3568 26.2993C27.3458 26.3549 27.3319 26.4125 27.2962 26.4563C27.2594 26.501 27.2038 26.5268 27.1501 26.5476C26.8421 26.6649 26.4724 26.6679 26.1892 26.5139L26.6692 27.998H28.4766C28.9645 27.3583 29.4713 27.1278 29.9641 27.0275V26.5725C30.1151 26.7215 30.3218 26.8069 30.5404 26.802C30.8445 26.795 31.1177 26.6152 31.2439 26.339L32.1799 24.2956L32.1899 24.2738L32.2237 24.2002C32.3032 24.3572 32.4085 24.6006 32.476 24.8877C32.5983 25.4072 32.5943 26.0649 32.1054 26.6251C31.7149 27.0722 31.2489 27.1526 30.7421 27.2003C30.132 27.2569 29.4593 27.2679 28.8174 28H29.9631V27.5748C30.2384 27.5013 30.5096 27.4884 30.767 27.4646C31.3413 27.4109 31.863 27.3066 32.3051 26.8C32.8606 26.1642 32.8735 25.4182 32.7344 24.8281C32.6261 24.3681 32.4274 24.0115 32.3618 23.9012L32.4164 23.782C32.5734 23.8436 32.7125 23.9191 32.8268 24.0075C33.5065 24.531 33.7857 25.2701 33.7857 25.2701L35.4113 24.5638C35.6816 24.4466 36.0005 24.5608 36.1227 24.8201C36.245 25.0794 36.1257 25.3844 35.8554 25.5016L33.886 26.3569C33.6803 26.4463 33.4379 26.4026 33.2789 26.2476L32.8258 25.8036V28H34.3302C34.2954 27.8967 34.2676 27.7914 34.2547 27.6831C34.2308 27.4775 34.2686 27.2559 34.4017 27.098C34.6273 26.8298 35.0297 26.8228 35.3795 26.8387C35.7193 26.8536 36.0601 26.8685 36.4 26.8834L36.6533 26.1741L37.1293 24.841C36.7726 24.7019 36.4377 24.5092 36.1406 24.2688C36.0393 24.1873 35.9379 24.091 35.9101 23.9638C35.8823 23.8367 35.9717 23.6797 36.1019 23.6857C36.1843 23.6896 36.2489 23.7532 36.3215 23.7929C36.394 23.8327 36.5063 23.8357 36.5371 23.7592C36.547 23.7343 36.545 23.7055 36.543 23.6787C36.5301 23.5128 36.5182 23.3459 36.5053 23.18C36.5013 23.1234 36.4973 23.0628 36.5271 23.0141C36.5748 22.9356 36.6832 22.9267 36.7746 22.9247C37.0359 22.9217 37.3082 22.9207 37.5456 23.03C37.6122 23.0608 37.6758 23.1035 37.7305 23.1542L39.3998 18.4802C39.3173 18.4912 39.2368 18.4842 39.1653 18.4415C39.0282 18.36 38.9854 18.1852 38.9079 18.0451C38.8304 17.9061 38.7102 17.7928 38.6466 17.6468C38.5701 17.4719 38.584 17.2733 38.5989 17.0835C38.6039 17.0259 38.6088 16.9643 38.6446 16.9176C38.6983 16.8461 38.7996 16.8352 38.889 16.8332C39.2438 16.8262 39.5995 16.8689 39.9423 16.9603L40.6021 15.1126L41.7229 11.9745C41.4616 11.7986 41.2341 11.5741 41.0572 11.3138C40.9449 11.1499 40.8505 10.9532 40.8903 10.7585C40.9479 10.4834 41.2688 10.3264 41.548 10.3642C41.7875 10.3959 41.9962 10.534 42.18 10.694L42.8905 8.70418L40.7044 9.28631L40.301 9.98467L40.0347 9.8307L40.4381 9.13234L39.9135 7.17534L39.215 6.77202L39.369 6.50578L40.0675 6.9091L41.243 6.59718V7.43958C41.243 7.77932 41.5192 8.0545 41.8581 8.0545C42.1979 8.0545 42.4731 7.77833 42.4731 7.43958V6.26737L43.1468 6.08955L43.3028 6.67268L43.6486 6.58029L43.9566 5.71702L44.208 5.01369C44.1753 5.01667 44.1425 5.01866 44.1097 5.01966C43.9348 5.02562 43.7371 5.01866 43.6208 4.88753C43.5125 4.76534 43.5194 4.57958 43.5512 4.41964C43.5791 4.28156 43.6208 4.14447 43.6983 4.02725C43.8632 3.77492 44.1604 3.64678 44.4396 3.53353C44.5459 3.49081 44.6592 3.4471 44.7714 3.43518L45.3895 1.70567C45.3746 1.71362 45.3597 1.72256 45.3438 1.72951C45.309 1.74441 45.2653 1.76329 45.2206 1.75931ZM27.3458 6.48691C27.5674 6.39353 27.8228 6.49784 27.9162 6.71936C28.0096 6.94189 27.9053 7.19719 27.6837 7.29057C27.4621 7.38494 27.2057 7.27964 27.1123 7.05811C27.0189 6.83559 27.1233 6.58029 27.3458 6.48691ZM38.6506 0.360605L38.9735 1.14539L38.6635 1.27255C38.3763 1.08479 38.0882 0.897041 37.801 0.709288L38.6506 0.360605ZM37.4483 0.854325L38.2859 1.4007L38.3107 1.41659L37.5675 1.72256C37.2803 1.5348 36.9922 1.34705 36.705 1.1593L37.4483 0.854325ZM36.3523 1.30434C36.6394 1.49209 36.9276 1.67984 37.2148 1.86759L36.4715 2.17356C36.1843 1.98581 35.8962 1.79806 35.609 1.6103L36.3523 1.30434ZM33.6456 4.55077C33.6724 4.4703 33.737 4.40871 33.7996 4.3501C33.891 4.26467 33.9904 4.17427 34.1136 4.15142C34.2467 4.12659 34.3799 4.18222 34.5041 4.23785C34.6164 4.28752 34.7386 4.34812 34.7853 4.46136C34.8062 4.51302 34.8091 4.56964 34.8081 4.62528C34.8032 4.85972 34.7277 5.09317 34.5945 5.28589C34.5478 5.35344 34.4922 5.41801 34.4176 5.45476C34.3411 5.49152 34.2537 5.4945 34.1692 5.48854C34.0391 5.47861 33.9119 5.4488 33.7906 5.40013C33.7996 5.42794 33.8075 5.45576 33.8165 5.48357L33.6635 5.34052C33.7052 5.36337 33.7479 5.38225 33.7916 5.40013C33.731 5.20244 33.6823 5.00078 33.6456 4.79713C33.6317 4.71468 33.6187 4.62826 33.6456 4.55077ZM34.8529 6.46505C35.1221 6.46704 35.3397 6.67963 35.3427 6.94189C35.3457 7.20812 35.1261 7.42567 34.8529 7.42865C34.5836 7.42667 34.366 7.21408 34.363 6.95182C34.36 6.68559 34.5796 6.46803 34.8529 6.46505ZM33.8612 9.40254C33.5879 9.40552 33.3634 9.19194 33.3604 8.92472C33.3634 8.66246 33.581 8.44987 33.8503 8.44689C34.1235 8.44391 34.3481 8.65749 34.3511 8.92472C34.3481 9.18697 34.1305 9.39956 33.8612 9.40254ZM33.9466 8.30483L33.5363 7.83893L33.111 7.12169C33.107 7.11474 33.103 7.10778 33.1001 7.10083C33.0206 6.94288 33.0881 6.75115 33.2511 6.67367C33.4141 6.59618 33.6098 6.66175 33.6893 6.82069C33.896 7.20613 34.1146 7.78628 34.6432 7.79124H35.0625C35.4769 7.79919 35.7143 7.39786 35.8833 7.08494C35.9677 6.93692 36.0323 6.68658 36.233 6.65181C36.2569 6.64685 36.2807 6.64387 36.3056 6.64287C36.4874 6.64089 36.6364 6.78394 36.6384 6.96175C36.6384 7.01838 36.6225 7.07302 36.5947 7.12169L36.1694 7.83694L35.7581 8.30483C35.7561 8.30781 35.7521 8.31079 35.7471 8.31079C35.7382 8.30483 33.9506 8.32271 33.9466 8.30483ZM36.8173 8.31079C37.0905 8.30881 37.3131 8.52338 37.3151 8.79061C37.3131 9.05485 37.0945 9.26843 36.8233 9.27042C36.55 9.27241 36.3274 9.05783 36.3254 8.79061C36.3274 8.52537 36.547 8.31179 36.8173 8.31079ZM35.1032 8.99624C35.1003 8.99028 35.0963 8.98432 35.0933 8.97836C35.0208 8.83432 35.0824 8.66047 35.2294 8.58994C35.3775 8.51941 35.5564 8.57901 35.6279 8.72305L35.762 8.9873C35.9379 9.31314 36.1814 9.71944 36.6106 9.71049H37.0299C37.4572 9.72043 37.7056 9.31015 37.8785 8.98829L38.0126 8.72305C38.0206 8.70815 38.0295 8.69325 38.0395 8.68034C38.1379 8.5502 38.3257 8.52239 38.4588 8.61875C38.58 8.70716 38.6148 8.86908 38.5393 8.99723L38.115 9.71149L37.6877 10.1973C37.5605 10.3413 37.49 10.5241 37.49 10.7138V11.0546L36.1506 11.0536V10.7138C36.1506 10.5241 36.08 10.3403 35.9528 10.1973L35.5265 9.71348L35.1032 8.99624ZM34.8628 13.7954C35.45 13.401 35.9349 12.8973 36.2291 12.3867L35.7233 12.5218C35.6547 12.5397 35.5842 12.5 35.5663 12.4314C35.5484 12.3629 35.5882 12.2923 35.6567 12.2745L36.4417 12.0639C36.5103 12.046 36.5808 12.0857 36.5987 12.1543L36.8093 12.939C36.8272 13.0076 36.7875 13.0801 36.7189 13.096C36.6514 13.1119 36.5768 13.0622 36.5619 13.0056L36.4367 12.5407C36.1217 13.0761 35.615 13.5987 35.0059 14.0079C34.2288 14.5305 33.3594 14.8186 32.5585 14.8186C32.488 14.8186 32.4303 14.7609 32.4303 14.6904C32.4303 14.6199 32.488 14.5623 32.5585 14.5623C33.3097 14.5623 34.1275 14.2901 34.8628 13.7954ZM31.7308 12.0529C31.8252 11.9178 32.014 11.9009 32.178 11.897C32.2664 11.895 32.3628 11.895 32.4323 11.9506C32.5327 12.0311 32.5247 12.1831 32.5088 12.3102C32.5685 12.1205 32.7851 12.0351 32.9798 11.9963C33.0911 11.9745 33.2123 11.9596 33.3147 12.0082C33.4458 12.0698 33.5144 12.2238 33.5114 12.3688C33.5084 12.5139 33.4458 12.65 33.3723 12.7751C33.3028 12.8934 33.2203 13.0056 33.115 13.093C32.802 13.3533 32.3151 13.3692 32.0617 13.6871L31.9882 13.5937C31.7964 13.24 31.7398 12.8318 31.6871 12.4324C31.6712 12.3023 31.6573 12.1602 31.7308 12.0529ZM30.0625 16.0971C30.0625 16.0971 30.2533 15.9063 30.3804 15.7792C30.4262 15.7335 30.4947 15.7206 30.5533 15.7444C30.613 15.7692 30.6517 15.8269 30.6517 15.8914V16.559H30.8375C30.9369 16.559 31.0323 16.5987 31.1018 16.6683C31.1724 16.7388 31.2111 16.8332 31.2111 16.9325V17.0845C31.2111 17.1441 31.1873 17.2007 31.1456 17.2425C31.1038 17.2842 31.0472 17.308 30.9876 17.308H30.8355C30.7362 17.308 30.6408 17.2683 30.5712 17.1988C30.5017 17.1292 30.4619 17.0338 30.4619 16.9355V16.9335V15.9659L30.1966 16.2312C30.1599 16.2679 30.0992 16.2679 30.0625 16.2312C30.0257 16.1934 30.0257 16.1338 30.0625 16.0971ZM29.3739 19.5829C29.3739 19.4836 29.4136 19.3882 29.4832 19.3187C29.5537 19.2481 29.6481 19.2094 29.7475 19.2094H29.9333V18.5418C29.9333 18.4773 29.9721 18.4196 30.0317 18.3948C30.0913 18.37 30.1599 18.3839 30.2046 18.4296C30.3308 18.5557 30.5225 18.7475 30.5225 18.7475C30.5593 18.7842 30.5593 18.8448 30.5225 18.8816C30.4858 18.9183 30.4252 18.9183 30.3884 18.8816L30.1231 18.6163V19.5839C30.1231 19.5839 30.1231 19.5849 30.1231 19.5859C30.1231 19.6842 30.0833 19.7796 30.0138 19.8491C29.9432 19.9197 29.8488 19.9584 29.7495 19.9584H29.5974C29.5378 19.9584 29.4812 19.9346 29.4395 19.8929C29.3977 19.8511 29.3739 19.7945 29.3739 19.7349V19.5829ZM25.603 6.86937C25.7749 6.70148 26.0511 6.70546 26.219 6.87732C26.387 7.04917 26.384 7.32534 26.2111 7.49422C26.0392 7.6621 25.762 7.65813 25.595 7.48528C25.4271 7.31342 25.4301 7.03725 25.603 6.86937ZM21.2836 6.05776H21.6662V4.52792H22.7502V3.78883C22.8337 3.82658 22.9191 3.86135 23.0066 3.89215L23.1328 3.93585L23.259 3.89215C23.3464 3.86135 23.4319 3.82658 23.5153 3.78883V4.52792H24.5994V6.05875H24.982V6.44121H21.2826V6.05776H21.2836ZM22.7542 8.15781C22.7204 8.17569 22.6807 8.17966 22.6429 8.18165C22.4342 8.19556 22.2256 8.19457 22.0169 8.17668C21.8848 8.16576 21.7486 8.14788 21.6324 8.08231C21.5161 8.01675 21.4237 7.89456 21.4307 7.76144C21.4386 7.58263 21.6105 7.45945 21.7735 7.38693C22.0358 7.2707 22.3239 7.21309 22.6111 7.22004L22.7741 7.22203C22.7959 7.4366 22.8178 7.65118 22.8397 7.86575C22.8506 7.97304 22.8486 8.10615 22.7542 8.15781ZM20.1071 10.0711C20.1936 10.1377 20.3059 10.1714 20.4231 10.1565C20.5771 10.1357 20.7013 10.0353 20.758 9.90123C20.7758 9.85951 20.7262 9.81778 20.6884 9.84162C20.602 9.89527 20.5036 9.93103 20.3963 9.94593C20.3058 9.95785 20.2184 9.95288 20.1349 9.93401C20.1757 9.68367 20.1687 9.4393 20.129 9.20684C20.3367 9.23565 20.5841 9.24558 20.8573 9.20883C21.2329 9.15916 21.537 9.03796 21.7576 8.92273C21.8887 8.85418 22.0487 8.92372 22.0865 9.06777C22.2166 9.5595 22.3766 10.5668 21.7854 11.3009C21.698 11.4092 21.5737 11.5374 21.3979 11.6576C21.2747 11.742 21.1196 11.7629 20.9785 11.7132C20.7778 11.6437 20.6248 11.5523 20.5115 11.4708C20.2045 11.2483 20.0048 10.9513 19.8736 10.6423C19.9491 10.5181 20.0107 10.387 20.0574 10.2519C20.0753 10.1923 20.0932 10.1317 20.1071 10.0711ZM19.5169 14.0109C19.2953 14.0109 19.1155 14.1917 19.1155 14.4123V14.896C19.1155 15.059 19.2417 15.1941 19.4026 15.207C19.4096 15.208 19.4155 15.2139 19.4155 15.2209V15.9431C19.4155 15.951 19.4096 15.957 19.4016 15.957H18.4597H18.2689C18.2609 15.957 18.255 15.951 18.255 15.9431V14.3984C18.255 14.3238 18.2321 14.2652 18.1804 14.2116L17.3368 13.3185C17.2573 13.2341 17.1997 13.1059 17.2067 12.9917L17.2881 11.5006C17.2881 11.5006 17.2881 11.5006 17.2881 11.4996C17.2881 11.3198 17.5634 10.9791 17.7204 10.9791C17.8585 10.9791 17.9847 11.0258 18.0761 11.1013C18.3384 11.3158 18.2619 11.6834 17.943 11.8145C17.938 11.8165 17.934 11.8215 17.934 11.8274V12.7582C17.934 12.8159 17.9549 12.8616 17.9996 12.8983L18.6216 13.4169C18.7409 13.5162 18.871 13.5629 19.026 13.5629H19.5169C20.2115 13.5629 20.7798 14.1311 20.7798 14.8255V15.9451C20.7798 15.953 20.7739 15.959 20.7659 15.959C20.3883 15.959 20.0107 15.959 19.6322 15.959C19.6242 15.959 19.6182 15.953 19.6182 15.9451V15.2229C19.6182 15.2159 19.6232 15.21 19.6312 15.209C19.7921 15.1961 19.9183 15.061 19.9183 14.898V14.4142C19.9193 14.1917 19.7385 14.0109 19.5169 14.0109ZM19.1214 12.4801C19.34 12.2615 19.6938 12.2615 19.9114 12.4801C20.13 12.6986 20.13 13.0523 19.9114 13.2699C19.6928 13.4884 19.339 13.4884 19.1214 13.2699C18.9038 13.0523 18.9038 12.6986 19.1214 12.4801ZM17.3825 8.82637C17.629 8.79359 17.9469 8.71709 18.2828 8.54126C18.6186 8.36543 18.8631 8.14788 19.03 7.96509C19.1294 7.85582 19.3043 7.86674 19.3887 7.98893C19.6799 8.40715 20.1747 9.29823 19.8696 10.1913C19.8249 10.3234 19.7514 10.4863 19.6282 10.6592C19.5417 10.7804 19.4026 10.8529 19.2536 10.8549C19.0409 10.8579 18.8661 10.8251 18.7319 10.7863C17.8247 10.5271 17.3746 9.61215 17.1977 9.13532C17.1461 8.99425 17.2365 8.84524 17.3825 8.82637ZM12.8922 11.4271C12.9499 11.3327 13.0671 11.3069 13.1536 11.3705L13.5948 11.6933C13.6524 11.7291 13.6921 11.7966 13.6921 11.8741V12.493H13.3136V11.9844L12.9439 11.7132C12.8575 11.6496 12.8346 11.5215 12.8922 11.4271ZM12.6697 11.8423C12.7442 11.8701 12.7969 11.9476 12.7969 12.038V12.494H9.89441L9.8954 12.038C9.8954 11.9566 9.94012 11.8791 10.0127 11.8473C10.3833 11.6814 10.7619 11.5542 11.1563 11.5215V11.893C11.1563 12.0072 11.2408 12.1006 11.3451 12.1006C11.4495 12.1006 11.5339 12.0082 11.5339 11.893V11.5215C11.6969 11.5354 11.8589 11.5652 12.0198 11.6079C12.2404 11.6665 12.456 11.747 12.6697 11.8423ZM10.6585 10.5658C10.6585 10.1506 10.9666 9.81381 11.3451 9.81381C11.7247 9.81381 12.0317 10.1506 12.0317 10.5658C12.0317 10.9811 11.7237 11.3178 11.3451 11.3178C10.9666 11.3178 10.6585 10.9811 10.6585 10.5658ZM12.5316 8.42305C12.4719 8.62669 12.2394 8.72107 12.0327 8.76478C11.8579 8.80153 11.68 8.82339 11.5011 8.82835C11.3392 8.83332 11.1404 8.84425 11.0679 8.98929L11.049 9.10949C10.8573 8.87306 10.7748 8.55219 10.8274 8.25318C10.8433 8.16377 10.8722 8.07337 10.9358 8.00979C11.0133 7.93231 11.1385 7.90648 11.2398 7.9482C11.3412 7.98992 11.4127 8.09523 11.4147 8.2045C11.4852 8.07536 11.6224 7.99589 11.7625 7.95019C11.9383 7.89257 12.1391 7.87966 12.304 7.9631C12.4699 8.04754 12.5842 8.24523 12.5316 8.42305ZM10.5631 3.48783C10.9685 3.48783 11.2974 3.81665 11.2974 4.22195C11.2974 4.62726 10.9685 4.95608 10.5631 4.95608C10.1577 4.95608 9.82883 4.62726 9.82883 4.22195C9.82883 3.81665 10.1577 3.48783 10.5631 3.48783ZM9.22668 0.0834457C9.48701 0.0923863 9.75729 0.104307 9.98582 0.229476C10.0673 0.274179 10.1438 0.33577 10.1756 0.423189C10.2104 0.520542 10.1816 0.63081 10.1269 0.718229C10.0723 0.805648 9.99477 0.877173 9.92422 0.951678C9.78113 1.10268 9.6609 1.27553 9.56949 1.46229C9.52577 1.5507 9.48006 1.65004 9.38864 1.68779C9.35188 1.70269 9.31213 1.70567 9.27338 1.70666C9.05279 1.7156 8.83021 1.68679 8.61857 1.62123C8.53013 1.59342 8.4407 1.55865 8.37115 1.49706C8.30457 1.43745 8.26085 1.35699 8.22707 1.27453C8.06014 0.859292 8.15354 0.352657 8.4566 0.0238416M8.50827 3.93784L9.41348 4.56468C9.31015 4.61335 9.21575 4.67495 9.13626 4.75541L8.65732 5.23423L8.2996 4.97595L7.2364 6.03888C7.04463 6.23061 6.73461 6.23061 6.54383 6.03888C6.35206 5.84716 6.35206 5.53722 6.54383 5.34648L7.89022 3.99844C8.05517 3.83353 8.31352 3.8087 8.50827 3.93784ZM6.61438 1.3242L6.91049 0.783793L7.20659 1.3242L7.74714 1.62024L7.20659 1.91627L6.91049 2.45668L6.61438 1.91627L6.07383 1.62024L6.61438 1.3242ZM5.78369 3.0408L6.33417 3.3418L5.78369 3.6428L5.48261 4.19315L5.18154 3.6428L4.63106 3.3418L5.18154 3.0408L5.48261 2.49046L5.78369 3.0408ZM5.92976 5.17065C5.92976 5.30575 5.82045 5.41503 5.68532 5.41503H4.44425C4.30912 5.41503 4.19981 5.30575 4.19981 5.17065C4.19981 5.03555 4.30912 4.92628 4.44425 4.92628H5.68432C5.82045 4.92528 5.92976 5.03456 5.92976 5.17065ZM4.28626 1.01923L4.52672 0.579153L4.76719 1.01923L5.20737 1.25963L4.76719 1.50004L4.52672 1.94011L4.28626 1.50004L3.84608 1.25963L4.28626 1.01923ZM2.02671 1.27652L1.68291 1.08877L2.02671 0.901015L2.21451 0.557298L2.40231 0.901015L2.74611 1.08877L2.40231 1.27652L2.21451 1.62024L2.02671 1.27652ZM3.12668 6.57334C3.00048 6.70546 2.77393 6.64784 2.62886 6.53757C2.28009 6.27233 2.16781 5.81239 1.98597 5.41006C1.98895 5.42695 1.98994 5.44483 1.99491 5.46172L1.94821 5.3286C1.96113 5.35542 1.97404 5.38225 1.98597 5.41006C1.95616 5.20741 2.0754 5.00475 2.19165 4.82992C2.2314 4.77031 2.27313 4.70872 2.33474 4.67197C2.39038 4.63819 2.45696 4.62925 2.52154 4.62428C2.67854 4.61335 2.83752 4.62826 2.99055 4.66898C3.05016 4.68488 3.11376 4.70872 3.14456 4.76236C3.1853 4.83488 3.14655 4.92429 3.10581 4.99681C3.04917 5.09615 2.98757 5.19251 2.92 5.28489C2.83852 5.39814 2.74412 5.53722 2.80175 5.66437C2.84945 5.77067 2.98061 5.80941 3.05712 5.89683C3.10879 5.95544 3.13264 6.03292 3.15549 6.10842C3.2012 6.26439 3.23896 6.45512 3.12668 6.57334ZM3.13761 3.72923L2.81169 3.13319L2.2155 2.80735L2.81169 2.48152L3.13761 1.88548L3.46352 2.48152L4.05971 2.80735L3.46352 3.13319L3.13761 3.72923ZM3.99314 6.2932C3.858 6.2932 3.7487 6.18392 3.7487 6.04882C3.7487 5.91372 3.858 5.80444 3.99314 5.80444H5.2342C5.36934 5.80444 5.47864 5.91372 5.47864 6.04882C5.47864 6.18392 5.36934 6.2932 5.2342 6.2932H3.99314ZM4.19882 6.99056C4.19882 6.85546 4.30812 6.74619 4.44326 6.74619H5.68432C5.81946 6.74619 5.92876 6.85546 5.92876 6.99056C5.92876 7.12567 5.81946 7.23494 5.68432 7.23494H4.44425C4.30812 7.23494 4.19882 7.12567 4.19882 6.99056ZM5.0315 10.9354C4.83972 11.1271 4.52971 11.1271 4.33893 10.9354C4.14715 10.7436 4.14715 10.4337 4.33893 10.243L6.92638 7.65614C6.9701 7.82105 7.05258 7.97403 7.17678 8.09821L7.52357 8.4449L5.0315 10.9354ZM8.45561 12.1294C8.43673 12.2506 8.40493 12.3698 8.36121 12.4851C8.30855 12.6202 8.21316 12.7672 8.06809 12.7722C7.90811 12.7781 7.79881 12.6063 7.76999 12.4483C7.74217 12.2973 7.75707 12.1354 7.83358 12.0023C7.9101 11.8692 8.05417 11.7718 8.2072 11.7718L8.19229 11.7281C8.28271 11.6913 8.39003 11.7529 8.43375 11.8413C8.47647 11.9288 8.47051 12.0321 8.45561 12.1294ZM7.97071 10.9354C7.77893 11.1271 7.46892 11.1271 7.27814 10.9354C7.08636 10.7436 7.08636 10.4337 7.27814 10.243L8.64639 8.87504L7.52357 7.7525C7.33179 7.56078 7.33179 7.25083 7.52357 7.0601L9.48304 5.10111C9.79306 4.79117 10.3197 5.01667 10.3197 5.44682V6.42631H11.8052C12.0755 6.42631 12.2951 6.64585 12.2951 6.91606C12.2951 7.18626 12.0755 7.40581 11.8052 7.40581H9.82982C9.55955 7.40581 9.33995 7.18626 9.33995 6.91606V6.62897L8.56292 7.40581L9.68574 8.52835C9.87752 8.72007 9.87752 9.03001 9.68574 9.22075L7.97071 10.9354ZM9.74735 11.7132L9.37771 11.9844V12.493H8.99913V11.8741C8.99913 11.7966 9.03888 11.7281 9.09651 11.6933L9.53769 11.3705C9.62414 11.3069 9.74139 11.3327 9.79902 11.4271C9.85665 11.5215 9.8338 11.6496 9.74735 11.7132ZM8.98224 13.706V12.8556C8.98224 12.7652 9.05776 12.6917 9.15116 12.6917H13.5411C13.6345 12.6917 13.71 12.7652 13.71 12.8556V13.706C13.71 13.7964 13.6345 13.8699 13.5411 13.8699H9.15116C9.05776 13.8689 8.98224 13.7964 8.98224 13.706ZM9.88845 15.0302C9.78213 14.7123 9.65991 14.3964 9.54663 14.0795H13.1446C13.0314 14.3934 12.9101 14.7063 12.8048 15.0212C12.7959 15.0739 12.7154 15.1156 12.616 15.1156H10.0743C9.98483 15.1156 9.90534 15.0798 9.88845 15.0302ZM11.7426 16.7438C11.6989 16.7597 11.6512 16.7587 11.6045 16.7577C11.3024 16.7517 11.0003 16.7458 10.6983 16.7408C10.588 16.7388 10.4727 16.7348 10.3763 16.6822C10.2094 16.5898 10.1528 16.3454 10.2601 16.1875C10.3018 16.1269 10.3604 16.0812 10.423 16.0434C10.6913 15.8815 11.047 15.8606 11.3203 16.0146L11.3412 15.9918C11.4395 16.0603 11.5508 16.108 11.6512 16.1746C11.7515 16.2401 11.8439 16.3295 11.8747 16.4458C11.9056 16.561 11.8549 16.704 11.7426 16.7438ZM11.06 21.8836L11.0729 21.8528C11.057 21.5489 11.0967 21.2409 11.1911 20.9518C11.2517 20.7641 11.3511 20.5674 11.5339 20.4929C11.5945 20.468 11.6681 20.4601 11.7237 20.4949C11.829 20.5594 11.8082 20.7174 11.7734 20.8366C12.0735 20.6856 12.4034 20.5932 12.7382 20.5644C12.8088 20.5584 12.8873 20.5574 12.9409 20.6041C13.0085 20.6627 13.0045 20.774 12.9548 20.8485C12.9062 20.923 12.8247 20.9687 12.7452 21.0094C12.5067 21.1316 12.2583 21.2349 12.0039 21.3184C11.8122 21.381 11.6154 21.4336 11.4375 21.527C11.2815 21.6075 11.1385 21.7277 11.06 21.8836ZM12.8823 19.4458L13.1963 18.7673C13.2072 18.7793 13.2192 18.7902 13.2321 18.8011C13.3304 18.8865 13.4527 18.9352 13.5799 18.9402C13.6474 19.0505 13.7498 19.1359 13.87 19.1816C13.9902 19.2273 14.1224 19.2293 14.2426 19.1895C14.338 19.265 14.4553 19.3097 14.5765 19.3137L14.2118 20.1025C14.188 20.1531 14.1383 20.1859 14.0836 20.1859H14.0826C14.028 20.1859 13.9783 20.1541 13.9545 20.1035L13.6703 19.5054L13.0413 19.6525C12.9876 19.6654 12.933 19.6445 12.8982 19.6008C12.8654 19.5571 12.8585 19.4965 12.8823 19.4458ZM10.5075 26.187C10.5075 26.2397 10.4648 26.2834 10.4111 26.2834H9.6142C9.56154 26.2834 9.51782 26.2397 9.51782 26.187V24.1665C9.51782 24.1138 9.56154 24.0701 9.6142 24.0701H10.4111C10.4648 24.0701 10.5075 24.1138 10.5075 24.1665V26.187ZM14.7086 25.6536L12.8306 26.5417C12.6399 26.6321 12.4342 26.6768 12.2295 26.6768C11.985 26.6768 11.7406 26.6132 11.522 26.4861L10.7768 26.0519C10.7529 26.037 10.7261 26.0291 10.6993 26.0261V24.3304H11.3084C11.6045 24.3105 11.8996 24.542 12.1361 24.69C12.1848 24.7208 12.2414 24.7377 12.299 24.7377H13.0015C13.5411 24.7397 13.5769 25.4708 13.0463 25.5036H12.0953C11.9682 25.5066 11.9691 25.6943 12.0953 25.6963H13.0463C13.3314 25.7003 13.5898 25.4688 13.6176 25.1857L14.4384 24.9473C14.8875 24.8241 15.125 25.4489 14.7086 25.6536ZM12.2891 23.9062C11.3193 22.9456 12.0149 21.2667 13.3811 21.2697C14.2098 21.2528 14.9431 21.984 14.9262 22.8144C14.9292 24.1804 13.251 24.8767 12.2891 23.9062ZM15.9606 21.6045C15.7897 21.8002 15.5135 21.8995 15.2561 21.8578C15.2184 21.8518 15.1796 21.8419 15.1488 21.8191C15.1101 21.7903 15.0882 21.7436 15.0723 21.6979C14.9878 21.4485 15.0584 21.1545 15.2452 20.9697C15.432 20.7849 15.7281 20.7194 15.9755 20.8068L16.1156 20.8723C16.1931 21.1217 16.1315 21.4078 15.9606 21.6045ZM16.2915 19.6008C16.2577 19.6445 16.2021 19.6654 16.1484 19.6525L15.5194 19.5054L15.2353 20.1035C15.2114 20.1541 15.1617 20.1859 15.1071 20.1859H15.1061C15.0514 20.1859 15.0018 20.1531 14.9779 20.1025L14.6132 19.3137C14.7345 19.3097 14.8517 19.266 14.9471 19.1895C15.0683 19.2293 15.1995 19.2273 15.3197 19.1816C15.44 19.1359 15.5423 19.0505 15.6099 18.9402C15.7361 18.9352 15.8593 18.8865 15.9576 18.8011C15.9696 18.7902 15.9815 18.7793 15.9934 18.7673L16.3074 19.4458C16.3323 19.4965 16.3253 19.5571 16.2915 19.6008ZM16.4038 17.4521C16.3899 17.5365 16.3412 17.611 16.2706 17.6557C16.215 17.6915 16.1902 17.762 16.211 17.8256C16.2369 17.907 16.2279 17.9965 16.1862 18.071C16.1445 18.1455 16.0749 18.1981 15.9934 18.216C15.9298 18.2299 15.8831 18.2875 15.8811 18.3551C15.8782 18.4405 15.8404 18.521 15.7768 18.5766C15.7132 18.6312 15.6297 18.6561 15.5473 18.6441C15.4827 18.6352 15.4201 18.672 15.3952 18.7346C15.3644 18.814 15.3018 18.8766 15.2243 18.9054C15.1468 18.9342 15.0594 18.9283 14.9869 18.8885C14.9292 18.8567 14.8577 18.8697 14.814 18.9203C14.7583 18.9839 14.6788 19.0206 14.5964 19.0206C14.5139 19.0206 14.4344 18.9839 14.3787 18.9203C14.3509 18.8885 14.3122 18.8716 14.2724 18.8716C14.2496 18.8716 14.2267 18.8776 14.2058 18.8885C14.1323 18.9283 14.0459 18.9352 13.9684 18.9054C13.8909 18.8766 13.8283 18.814 13.7965 18.7346C13.7716 18.672 13.709 18.6342 13.6444 18.6441C13.562 18.6561 13.4785 18.6312 13.4149 18.5766C13.3513 18.522 13.3136 18.4405 13.3106 18.3551C13.3086 18.2875 13.2619 18.2299 13.1983 18.216C13.1168 18.1981 13.0473 18.1455 13.0055 18.071C12.9638 17.9965 12.9548 17.908 12.9807 17.8256C13.0006 17.761 12.9757 17.6915 12.9211 17.6557C12.8505 17.61 12.8018 17.5355 12.7879 17.4521C12.774 17.3676 12.7949 17.2812 12.8455 17.2127C12.8853 17.159 12.8853 17.0845 12.8455 17.0319C12.7949 16.9643 12.773 16.8769 12.7879 16.7924C12.8028 16.708 12.8505 16.6335 12.9211 16.5888C12.9767 16.553 13.0015 16.4825 12.9807 16.4189C12.9548 16.3375 12.9638 16.2481 13.0055 16.1736C13.0473 16.0991 13.1168 16.0464 13.1983 16.0285C13.2619 16.0146 13.3086 15.957 13.3106 15.8894C13.3136 15.804 13.3513 15.7236 13.4149 15.6679C13.4785 15.6133 13.562 15.5884 13.6444 15.6004C13.709 15.6093 13.7716 15.5726 13.7965 15.51C13.8273 15.4305 13.8899 15.3679 13.9684 15.3391C14.0459 15.3103 14.1333 15.3163 14.2058 15.356C14.2635 15.3878 14.335 15.3749 14.3787 15.3242C14.4344 15.2606 14.5139 15.2239 14.5964 15.2239C14.6788 15.2239 14.7583 15.2606 14.814 15.3242C14.8577 15.3749 14.9292 15.3878 14.9869 15.356C15.0604 15.3163 15.1468 15.3093 15.2243 15.3391C15.3018 15.3679 15.3644 15.4305 15.3962 15.51C15.4211 15.5726 15.4837 15.6103 15.5483 15.6004C15.6307 15.5884 15.7142 15.6133 15.7778 15.6679C15.8414 15.7226 15.8792 15.804 15.8821 15.8894C15.8841 15.957 15.9308 16.0146 15.9944 16.0285C16.0759 16.0464 16.1454 16.0991 16.1872 16.1736C16.2289 16.2481 16.2379 16.3365 16.212 16.4189C16.1921 16.4835 16.217 16.553 16.2716 16.5888C16.3422 16.6345 16.3909 16.709 16.4048 16.7924C16.4187 16.8769 16.3978 16.9633 16.3472 17.0309C16.3074 17.0845 16.3074 17.159 16.3472 17.2117C16.3978 17.2802 16.4187 17.3676 16.4038 17.4521ZM16.3293 15.2805C16.3313 15.2934 16.3342 15.3073 16.3362 15.3202L16.3173 15.3053C16.3203 15.2964 16.3253 15.2894 16.3293 15.2805C16.2438 14.8017 16.1574 14.3238 16.0719 13.845C16.0679 13.8252 16.065 13.8023 16.0759 13.7854C16.0848 13.7705 16.1017 13.7636 16.1176 13.7576C16.2856 13.7 16.4763 13.7705 16.6035 13.8937C16.7307 14.0169 16.8042 14.1848 16.8619 14.3517C16.9483 14.1818 17.2077 14.1341 17.3488 14.2633C17.4968 14.3974 17.4829 14.6298 17.4571 14.8275C17.4531 14.8603 17.4481 14.8941 17.4292 14.9219C17.4114 14.9477 17.3815 14.9636 17.3527 14.9765C17.1759 15.051 16.9761 15.0242 16.7844 15.0361C16.6045 15.047 16.4028 15.1186 16.3293 15.2805ZM18.4418 20.6945C17.8476 20.6945 17.3656 20.2127 17.3656 19.6187C17.3656 19.0246 17.8476 18.5428 18.4418 18.5428C19.036 18.5428 19.5179 19.0246 19.5179 19.6187C19.5179 20.2127 19.036 20.6945 18.4418 20.6945ZM17.776 17.5296C17.7403 17.5296 17.7094 17.4998 17.7094 17.463V16.6246C17.7094 16.6166 17.7154 16.6107 17.7234 16.6107H21.3104C21.3184 16.6107 21.3243 16.6166 21.3243 16.6246V17.463C21.3243 17.4988 21.2945 17.5296 21.2578 17.5296H17.776ZM21.4108 18.7663C21.385 18.811 21.3353 18.8339 21.2886 18.8557C21.069 18.963 20.8683 19.111 20.7023 19.2899C20.6745 19.3197 20.6447 19.3515 20.6049 19.3574C20.5642 19.3634 20.5254 19.3385 20.4927 19.3137C20.2721 19.1518 20.0902 18.9372 19.965 18.6938L20.0078 18.5955C20.284 18.4008 20.5612 18.2061 20.8375 18.0104C20.8563 17.9974 20.8772 17.9835 20.9001 17.9835C20.9338 17.9835 20.9597 18.0114 20.9815 18.0382C21.1067 18.1912 21.228 18.3471 21.3452 18.5061C21.4009 18.5816 21.4585 18.6839 21.4108 18.7663ZM22.0726 16.3931C22.0726 16.4011 22.0666 16.407 22.0586 16.407H16.9741C16.9662 16.407 16.9602 16.4011 16.9602 16.3931V16.1755C16.9602 16.1676 16.9662 16.1616 16.9741 16.1616H22.0596C22.0676 16.1616 22.0735 16.1676 22.0735 16.1755V16.3931H22.0726ZM23.1248 14.9417C23.1248 15.1404 22.947 15.3033 22.7294 15.3033H21.1127C21.0998 15.3033 21.0938 15.2874 21.1038 15.2795L21.4326 14.9864C21.536 14.8941 21.5877 14.7808 21.5877 14.6497V13.5679C21.5877 13.3692 21.7655 13.2063 21.9831 13.2063H22.7294C22.947 13.2063 23.1248 13.3692 23.1248 13.5679V14.9417ZM23.0543 10.5082C22.9817 10.3691 23.0364 10.1983 23.1755 10.1257L24.2516 9.56745L23.9913 8.94856C23.9337 8.81047 24.0251 8.67338 24.1254 8.58696L24.7832 7.94622L24.4752 7.86774L24.0151 8.3694C23.9684 8.42007 23.9048 8.4459 23.8412 8.4459C23.7836 8.4459 23.727 8.42503 23.6813 8.38331C23.5849 8.2949 23.5789 8.14589 23.6674 8.04953L24.2238 7.44355C24.2824 7.37898 24.3729 7.35216 24.4563 7.37402L25.3804 7.61144C25.4212 7.62137 25.5066 7.66508 25.5573 7.71674L25.6696 7.83098C25.8067 7.97204 25.8097 8.19258 25.6825 8.33762L25.7779 8.64656L26.4088 8.82736C26.534 8.86312 26.6066 8.99425 26.5708 9.11942C26.535 9.24459 26.4049 9.31711 26.2787 9.28135L25.5255 9.06578C25.449 9.04392 25.3884 8.98432 25.3645 8.90783L25.3039 8.71213L24.9054 9.10055L25.5046 9.76414C25.5692 9.83566 25.5931 9.935 25.5682 10.0274L25.3188 10.9493C25.2781 11.0993 25.124 11.1897 24.971 11.1489C24.82 11.1082 24.7306 10.9522 24.7713 10.8012L24.98 10.0284L24.8369 9.87043C24.812 9.90222 24.7832 9.93004 24.7455 9.94891L23.4368 10.6274C23.2967 10.7019 23.1268 10.6463 23.0543 10.5082ZM26.2985 11.0377C26.1256 11.2056 25.8494 11.2016 25.6815 11.0287C25.5136 10.8569 25.5175 10.5807 25.6894 10.4128C25.8623 10.2449 26.1376 10.2479 26.3055 10.4208C26.4744 10.5926 26.4714 10.8698 26.2985 11.0377ZM24.7395 16.3077L25.8941 14.9795L25.0277 14.7609C24.8319 14.7113 24.7127 14.5116 24.7624 14.3159L24.9144 13.7149L24.5159 13.6146C24.4424 13.5957 24.3977 13.5212 24.4166 13.4477L24.5726 12.8278C24.5915 12.7543 24.666 12.7096 24.7395 12.7284L25.1499 12.8318C25.2284 12.6887 25.3963 12.6112 25.5613 12.6529L25.7799 12.7076L25.7938 12.6539C25.8852 12.2904 26.2558 12.0698 26.6185 12.1612L27.8367 12.4682C27.9102 12.4871 27.955 12.5616 27.9361 12.6351C27.9172 12.7086 27.8427 12.7533 27.7691 12.7344L26.5509 12.4274C26.3343 12.3728 26.1137 12.5049 26.0591 12.7215L26.0452 12.7751L27.7264 13.1993C27.9222 13.249 28.0414 13.4487 27.9917 13.6444L27.9689 13.7348L28.2352 13.8023L27.9281 15.0202L27.6618 14.9527L27.639 15.0431C27.5893 15.2388 27.3896 15.358 27.1938 15.3083L26.3274 15.0898L26.7139 16.8074C26.7308 16.8809 26.6841 16.9544 26.6105 16.9713C26.537 16.9882 26.4635 16.9415 26.4466 16.8679L26.1376 15.4941L25.8454 16.6524C25.8266 16.7259 25.752 16.7706 25.6785 16.7517C25.605 16.7328 25.5603 16.6583 25.5791 16.5848L25.8713 15.4265L24.9472 16.4895C24.8975 16.5461 24.811 16.553 24.7534 16.5034C24.6958 16.4517 24.6898 16.3653 24.7395 16.3077ZM27.315 19.1607L26.7854 18.8826L26.2558 19.1607L26.3572 18.5716L25.9259 18.1544L26.5211 18.068L26.7864 17.4868L27.0517 18.068L27.6469 18.1544L27.2157 18.5716L27.315 19.1607ZM28.3335 23.3559H25.2373V23.0121H25.5811C25.5811 22.8224 25.7351 22.6684 25.9249 22.6684H27.6449C27.8347 22.6684 27.9887 22.8224 27.9887 23.0121H28.3325V23.3559H28.3335ZM27.6867 22.3287C27.6728 22.3277 27.6598 22.3247 27.6449 22.3247H25.9249C25.91 22.3247 25.8961 22.3277 25.8822 22.3287L24.82 17.7054L25.1827 17.914L25.9875 18.6918L25.7997 19.7885L26.7864 19.27L27.7731 19.7885L27.629 18.9521L28.3604 19.2769L27.6867 22.3287ZM28.736 15.4583C28.7101 15.5616 28.5809 15.5964 28.5064 15.5219L28.1676 15.1861L28.5253 13.7675L28.9834 13.6324C29.0847 13.6026 29.1811 13.695 29.1553 13.7973L28.736 15.4583ZM32.2863 23.4234L31.0015 26.2258C30.917 26.4096 30.7352 26.5298 30.5325 26.5337C30.3298 26.5387 30.143 26.4274 30.0506 26.2476L29.199 24.5956C29.0658 24.3363 29.1672 24.0175 29.4265 23.8833C29.6859 23.7492 30.0048 23.8516 30.139 24.1108L30.4927 24.7963L31.3244 22.9813C31.4456 22.7161 31.7606 22.5989 32.0259 22.7211C32.2912 22.8442 32.4075 23.1582 32.2863 23.4234ZM30.0754 23.6727C30.293 23.6211 30.5265 23.5863 30.764 23.5704L30.4788 24.1933L30.3745 23.9916C30.3039 23.8535 30.1996 23.7453 30.0754 23.6727ZM32.4274 22.7101C32.3518 22.6148 32.2535 22.5353 32.1362 22.4817C31.9216 22.3833 31.6851 22.3893 31.4844 22.4777C31.5053 22.2264 31.7169 22.0277 31.9743 22.0277C32.2455 22.0277 32.4661 22.2482 32.4661 22.5194C32.4661 22.587 32.4522 22.6515 32.4274 22.7101ZM32.7195 22.3853C32.6559 22.0316 32.3469 21.7624 31.9743 21.7624C31.5778 21.7624 31.2529 22.0674 31.2201 22.4548C31.2151 22.5154 31.231 22.574 31.2628 22.6227C31.1893 22.6913 31.1277 22.7747 31.083 22.8721L31.0531 22.9356C30.4679 22.7419 30.0456 22.1906 30.0456 21.5409C30.0456 20.7303 30.7044 20.0717 31.5152 20.0717C32.326 20.0717 32.9848 20.7303 32.9848 21.5409C32.9858 21.8558 32.8874 22.1469 32.7195 22.3853ZM33.115 18.0481C33.0722 18.0908 33.0027 18.0908 32.96 18.0481L32.6529 17.7411V18.8617V18.8637C32.6529 18.9779 32.6072 19.0882 32.5257 19.1687C32.4442 19.2501 32.334 19.2958 32.2197 19.2958H32.0438C31.9753 19.2958 31.9097 19.269 31.861 19.2203C31.8123 19.1716 31.7855 19.1061 31.7855 19.0375V18.8617C31.7855 18.7465 31.8312 18.6372 31.9126 18.5557C31.9941 18.4743 32.1044 18.4286 32.2187 18.4286H32.4343V17.6557C32.4343 17.5812 32.479 17.5137 32.5476 17.4858C32.6161 17.457 32.6956 17.4729 32.7483 17.5256C32.8944 17.6716 33.116 17.8931 33.116 17.8931C33.1577 17.9359 33.1577 18.0054 33.115 18.0481ZM32.5585 16.4428C32.488 16.4428 32.4303 16.3852 32.4303 16.3146C32.4303 16.2441 32.488 16.1865 32.5585 16.1865H32.6956V15.2874C32.6956 15.2169 32.7533 15.1593 32.8238 15.1593H33.3375C33.4081 15.1593 33.4657 15.2169 33.4657 15.2874V16.1865H33.7231V14.9795C33.7231 14.909 33.7807 14.8513 33.8513 14.8513H34.365C34.4355 14.8513 34.4932 14.909 34.4932 14.9795V16.1865H34.7505V14.5086C34.7505 14.4381 34.8081 14.3805 34.8787 14.3805H35.3924C35.463 14.3805 35.5206 14.4381 35.5206 14.5086V16.1865H35.7779V13.6523C35.7779 13.5818 35.8356 13.5242 35.9061 13.5242H36.4198C36.4904 13.5242 36.548 13.5818 36.548 13.6523V16.1865H36.6851C36.7557 16.1865 36.8133 16.2441 36.8133 16.3146C36.8133 16.3852 36.7557 16.4428 36.6851 16.4428H32.5585ZM35.142 22.5919C35.0993 22.6346 35.0297 22.6346 34.987 22.5919L34.68 22.285V23.4055V23.4075C34.68 23.5217 34.6343 23.632 34.5528 23.7125C34.4713 23.7939 34.361 23.8396 34.2467 23.8396H34.0709C34.0023 23.8396 33.9367 23.8128 33.888 23.7641C33.8393 23.7155 33.8125 23.6499 33.8125 23.5814V23.4055C33.8125 23.2903 33.8582 23.181 33.9397 23.0996C34.0212 23.0181 34.1315 22.9724 34.2457 22.9724H34.4614V22.1995C34.4614 22.125 34.5061 22.0575 34.5746 22.0297C34.6432 22.0009 34.7227 22.0167 34.7753 22.0694C34.9214 22.2154 35.143 22.437 35.143 22.437C35.1847 22.4797 35.1847 22.5492 35.142 22.5919ZM34.6641 21.5836C34.6521 21.5836 34.6402 21.5787 34.6323 21.5687C34.6243 21.5598 34.6203 21.5469 34.6223 21.5349C34.6939 21.0263 35.0178 20.5992 35.463 20.3846C35.4639 20.3866 35.4649 20.3886 35.4659 20.3896L35.772 20.9349C35.7829 20.9548 35.8028 20.9677 35.8256 20.9697C35.8455 20.9717 35.8654 20.9647 35.8803 20.9498L35.8087 21.2985C35.8048 21.3194 35.8107 21.3422 35.8246 21.3581L36.0283 21.5826C35.4202 21.5836 34.833 21.5836 34.6641 21.5836ZM35.8435 20.2604C35.9329 20.2435 36.0254 20.2356 36.1198 20.2356C36.2141 20.2356 36.3066 20.2445 36.396 20.2604L36.1198 20.474L35.8435 20.2604ZM36.0204 20.5704L35.9478 20.6558L35.9469 20.6568L35.8415 20.7819L35.6219 20.3905C35.6607 20.3766 35.6994 20.3637 35.7392 20.3528L36.0204 20.5704ZM36.4973 20.3538C36.5371 20.3647 36.5768 20.3766 36.6146 20.3915L36.395 20.7829L36.2897 20.6578L36.2887 20.6568L36.2161 20.5713L36.4973 20.3538ZM36.1188 20.1492C35.6965 20.1492 35.3546 19.8074 35.3546 19.3852C35.3546 18.963 35.6965 18.6213 36.1188 18.6213C36.5411 18.6213 36.8829 18.963 36.8829 19.3852C36.8829 19.8074 36.5411 20.1492 36.1188 20.1492ZM35.9478 21.2926L36.0641 20.7313L36.1188 20.6657L36.1734 20.7313L36.2897 21.2926L36.1188 21.4813L35.9478 21.2926ZM37.6062 21.5687C37.5983 21.5777 37.5864 21.5836 37.5745 21.5836C37.4055 21.5836 36.8193 21.5836 36.2122 21.5836L36.4159 21.3591C36.4308 21.3432 36.4367 21.3204 36.4318 21.2995L36.3602 20.9508C36.3741 20.9647 36.394 20.9717 36.4149 20.9707C36.4367 20.9687 36.4566 20.9558 36.4685 20.9359L36.7746 20.3905C36.7756 20.3886 36.7766 20.3876 36.7775 20.3856C37.2237 20.6002 37.5476 21.0283 37.6182 21.5359C37.6172 21.5469 37.6142 21.5598 37.6062 21.5687ZM38.0762 19.7041L37.7523 19.8293C37.7116 20.0021 37.642 20.167 37.5496 20.318L37.6907 20.6359L37.492 20.8346C37.3857 20.6747 37.2515 20.5336 37.0965 20.4194C37.3479 20.169 37.5039 19.8223 37.5039 19.4389C37.5039 18.674 36.8839 18.0551 36.1198 18.0551C35.3546 18.0551 34.7356 18.674 34.7356 19.4389C34.7356 19.8213 34.8906 20.168 35.142 20.4194C34.987 20.5336 34.8529 20.6737 34.7465 20.8346L34.5478 20.6359L34.6889 20.318C34.5955 20.167 34.5269 20.0021 34.4852 19.8293L34.1613 19.7041V19.1746L34.4852 19.0495C34.5269 18.8766 34.5955 18.7117 34.6889 18.5597L34.5478 18.2418L34.9224 17.8673L35.2404 18.0084C35.3914 17.915 35.5564 17.8464 35.7292 17.8057L35.8544 17.4809H36.3841L36.5093 17.8057C36.6822 17.8464 36.8471 17.915 36.9981 18.0084L37.3161 17.8673L37.6907 18.2418L37.5496 18.5597C37.643 18.7107 37.7116 18.8756 37.7523 19.0495L38.0762 19.1746V19.7041ZM38.588 16.2173C38.581 16.2391 38.5671 16.256 38.5482 16.2669C38.5303 16.2769 38.5075 16.2799 38.4846 16.2739L38.0395 16.1448C37.9958 16.1318 37.9699 16.0851 37.9828 16.0414L38.0991 15.6421C38.1736 15.7176 38.269 15.7762 38.3793 15.807C38.4876 15.8388 38.5989 15.8418 38.7042 15.8159L38.588 16.2173ZM38.9974 15.3639C38.9556 15.4722 38.8791 15.5577 38.7847 15.6093C38.6784 15.6679 38.5492 15.6848 38.424 15.6481C38.1855 15.5795 38.0425 15.3441 38.0921 15.1017L38.5433 12.8486L39.8241 13.2202L38.9974 15.3639ZM39.994 13.096L38.4687 12.6529C38.4071 12.5159 38.3753 12.3678 38.3773 12.2188L40.303 12.7781C40.2245 12.9043 40.1192 13.0126 39.994 13.096ZM40.4173 12.5198C40.4063 12.5566 40.3944 12.5924 40.3795 12.6261L38.3902 12.049C38.3972 12.0122 38.4051 11.9754 38.4161 11.9387C38.4936 11.6715 38.6704 11.4499 38.9139 11.3158C39.1583 11.1817 39.4395 11.1499 39.7068 11.2284C40.2593 11.3893 40.5783 11.9685 40.4173 12.5198ZM39.6353 7.30944L40.1291 9.1522L39.6402 9.70751L38.9278 7.07202L39.6353 7.30944ZM39.1891 5.04548L35.6786 5.3743C35.5087 5.39019 35.3566 5.26403 35.3407 5.09416L35.1191 2.72887L34.7962 1.94409L35.2553 1.75534C35.5424 1.94309 35.8306 2.13085 36.1178 2.3186L35.1182 2.72887L39.2468 2.34244L39.4683 4.70773C39.4852 4.8776 39.359 5.02959 39.1891 5.04548ZM41.862 7.74455C41.6921 7.74455 41.554 7.60647 41.554 7.4366C41.554 7.26673 41.6921 7.12865 41.862 7.12865C42.032 7.12865 42.1701 7.26673 42.1701 7.4366C42.1701 7.60647 42.032 7.74455 41.862 7.74455ZM42.9392 5.59086H42.1701V6.90712C42.0797 6.85447 41.9753 6.82169 41.862 6.82169C41.7488 6.82169 41.6454 6.85447 41.554 6.90712V5.59086H40.7849V5.28291H42.9392V5.59086ZM42.7156 3.9438C42.5805 4.05904 42.4274 4.19017 42.2674 4.32924C42.2466 4.34712 42.2198 4.35805 42.1919 4.35805C42.1641 4.35805 42.1373 4.34812 42.1164 4.32924C41.9574 4.19017 41.8034 4.05904 41.6683 3.9438C40.8724 3.26531 40.3457 2.81729 40.3457 2.16164C40.3457 1.55567 40.767 1.09771 41.3265 1.09771C41.5272 1.09771 41.711 1.16129 41.872 1.28645C42.027 1.40666 42.1303 1.55964 42.1909 1.6709C42.2516 1.55964 42.3549 1.40666 42.5099 1.28645C42.6719 1.16129 42.8557 1.09771 43.0554 1.09771C43.6148 1.09771 44.0361 1.55467 44.0361 2.16164C44.0381 2.81729 43.5115 3.2663 42.7156 3.9438Z" fill="#4285F4"/>
<path d="M11.7762 1.62515L11.334 0.00292969L11.7762 1.62515Z" fill="#4285F4"/>
<path d="M23.1326 2.73876C23.7487 2.46954 24.1978 1.73443 24.1978 0.871162V0.00292969H22.0664V0.871162C22.0664 1.73542 22.5165 2.46954 23.1326 2.73876Z" fill="#4285F4"/>
<path d="M55.6896 11.1418L67.7362 11.1776V16.4998L55.6896 16.464V22.6419H70.3875V28H50V0.0179238L70.4275 0V5.35808H55.6896V11.1418Z" fill="#4285F4"/>
<path d="M92.029 11.1418H102.296V16.4819H92.029V28H86.375V0H105.931V5.35808H92.029V11.1418Z" fill="#4285F4"/>
<path d="M117.466 0.166504L102.973 27.9963H131.963L117.466 0.166504ZM117.466 12.2087L123.289 22.9339L112.15 22.9652L117.466 12.2087Z" fill="#4285F4"/>
<path d="M140.436 10.864V28H134.746V0H136.712L153.892 17.3242V0H159.582V28H157.433L140.436 10.864Z" fill="#4285F4"/>
<path d="M173.545 27.9999C170.969 27.9999 168.798 27.6281 167.077 26.8799C165.538 26.2079 164.203 25.3477 162.553 23.838L166.37 20.0121C168.038 21.71 169.964 22.5119 172.633 22.6463C175.08 22.7583 176.561 22.1042 177.135 21.0962C177.727 20.0703 177.727 19.0444 177.135 18.0364C176.543 17.0105 175.057 16.3743 172.593 16.1324C170.387 15.8905 168.367 15.2185 166.512 14.0985C164.621 12.9606 163.714 11.0207 163.714 8.23864C163.714 5.75672 164.79 3.75863 166.863 2.24439C168.959 0.730155 171.125 0.00439453 173.371 0.00439453C175.929 0.00439453 177.931 0.340389 179.359 0.936229C180.64 1.47831 181.824 2.29815 183.421 3.78999L179.622 7.59799C178.029 5.95383 176.432 5.35799 174.47 5.35799C172.246 5.35799 170.894 5.90008 170.302 6.90808C169.71 7.934 169.71 8.79415 170.302 9.50199C170.876 10.2098 172.246 10.8281 174.47 11.1238C176.806 11.4418 178.937 12.1497 180.845 13.4578C182.771 14.766 183.736 16.894 183.736 19.7657C183.736 22.0057 182.7 23.9455 180.658 25.5538C178.607 27.198 176.254 27.9999 173.545 27.9999Z" fill="#4285F4"/>
<path d="M197.701 27.9999C195.126 27.9999 192.955 27.6281 191.233 26.8799C189.694 26.2079 188.359 25.3477 186.709 23.838L190.526 20.0121C192.194 21.71 194.12 22.5119 196.789 22.6463C199.236 22.7583 200.717 22.1042 201.291 21.0962C201.883 20.0703 201.883 19.0444 201.291 18.0364C200.7 17.0105 199.214 16.3743 196.749 16.1324C194.543 15.8905 192.523 15.2185 190.668 14.0985C188.778 12.9606 187.87 11.0207 187.87 8.23864C187.87 5.75672 188.947 3.75863 191.02 2.24439C193.115 0.730155 195.281 0.00439453 197.528 0.00439453C200.086 0.00439453 202.087 0.340389 203.515 0.936229C204.797 1.47831 205.98 2.29815 207.577 3.78999L203.778 7.59799C202.185 5.95383 200.588 5.35799 198.627 5.35799C196.402 5.35799 195.05 5.90008 194.458 6.90808C193.867 7.934 193.867 8.79415 194.458 9.50199C195.032 10.2098 196.402 10.8281 198.627 11.1238C200.962 11.4418 203.093 12.1497 205.001 13.4578C206.927 14.766 207.893 16.894 207.893 19.7657C207.893 22.0057 206.856 23.9455 204.814 25.5538C202.764 27.198 200.41 27.9999 197.701 27.9999Z" fill="#4285F4"/>
</svg>
